<svg width="293" height="70" viewBox="0 0 293 70" fill="none" xmlns="http://www.w3.org/2000/svg">
<path d="M118.367 59.2621L99.3881 36.0307V59.2621H88.9275V7.12222H99.3881V30.503L118.367 7.12222H130.994L109.475 32.9681L131.592 59.2621H118.367ZM153.117 59.9344C149.132 59.9344 145.546 59.063 142.358 57.3199C139.17 55.5272 136.654 53.0124 134.811 49.7754C133.018 46.5383 132.121 42.8034 132.121 38.5705C132.121 34.3376 133.043 30.6027 134.886 27.3656C136.779 24.1286 139.344 21.6388 142.582 19.8957C145.82 18.103 149.431 17.2066 153.416 17.2066C157.401 17.2066 161.012 18.103 164.25 19.8957C167.488 21.6388 170.029 24.1286 171.871 27.3656C173.765 30.6027 174.71 34.3376 174.71 38.5705C174.71 42.8034 173.739 46.5383 171.796 49.7754C169.905 53.0124 167.313 55.5272 164.026 57.3199C160.788 59.063 157.152 59.9344 153.117 59.9344ZM153.117 50.8211C155.01 50.8211 156.778 50.3729 158.422 49.4766C160.116 48.5304 161.461 47.1359 162.457 45.2934C163.453 43.4509 163.951 41.2099 163.951 38.5705C163.951 34.6364 162.905 31.6235 160.813 29.5319C158.771 27.3906 156.255 26.3199 153.267 26.3199C150.278 26.3199 147.762 27.3906 145.72 29.5319C143.728 31.6235 142.731 34.6364 142.731 38.5705C142.731 42.5046 143.703 45.5425 145.645 47.6838C147.638 49.7753 150.129 50.8211 153.117 50.8211ZM189.109 23.9295C190.454 21.9376 192.296 20.319 194.638 19.0741C197.029 17.8291 199.744 17.2066 202.782 17.2066C206.319 17.2066 209.507 18.078 212.346 19.8211C215.235 21.5641 217.502 24.0539 219.146 27.291C220.839 30.4781 221.686 34.1882 221.686 38.4211C221.686 42.654 220.839 46.4139 219.146 49.7006C217.502 52.9377 215.235 55.4525 212.346 57.2453C209.507 59.038 206.319 59.9344 202.782 59.9344C199.693 59.9344 196.98 59.3368 194.638 58.1416C192.347 56.8967 190.503 55.3031 189.109 53.3609V59.2621H178.648V3.98486H189.109V23.9295ZM211.001 38.4211C211.001 35.9311 210.478 33.7898 209.432 31.997C208.436 30.1545 207.091 28.76 205.397 27.8138C203.754 26.8677 201.96 26.3946 200.018 26.3946C198.124 26.3946 196.331 26.8925 194.638 27.8885C192.994 28.8347 191.649 30.2292 190.603 32.0717C189.606 33.9142 189.109 36.0805 189.109 38.5705C189.109 41.0605 189.606 43.2268 190.603 45.0693C191.649 46.9118 192.994 48.3311 194.638 49.3272C196.331 50.2733 198.124 50.7464 200.018 50.7464C201.96 50.7464 203.754 50.2485 205.397 49.2525C207.091 48.2564 208.436 46.8371 209.432 44.9946C210.478 43.1521 211.001 40.9609 211.001 38.4211ZM236.013 24.303C237.358 22.1118 239.1 20.3937 241.243 19.1488C243.434 17.9038 245.925 17.2813 248.715 17.2813V28.262H245.95C242.663 28.262 240.172 29.034 238.478 30.5777C236.835 32.1214 236.013 34.8106 236.013 38.6452V59.2621H225.552V17.8789H236.013V24.303ZM249.335 38.4211C249.335 34.238 250.157 30.528 251.801 27.291C253.494 24.0539 255.761 21.5641 258.6 19.8211C261.489 18.078 264.702 17.2066 268.239 17.2066C271.326 17.2066 274.016 17.8291 276.308 19.0741C278.649 20.319 280.517 21.8877 281.912 23.7801V17.8789H292.448V59.2621H281.912V53.2115C280.567 55.1537 278.699 56.7721 276.308 58.0669C273.967 59.3119 271.252 59.9344 268.164 59.9344C264.676 59.9344 261.489 59.038 258.6 57.2453C255.761 55.4525 253.494 52.9377 251.801 49.7006C250.157 46.4139 249.335 42.654 249.335 38.4211ZM281.912 38.5705C281.912 36.0307 281.413 33.8645 280.418 32.0717C279.421 30.2292 278.076 28.8347 276.383 27.8885C274.689 26.8925 272.871 26.3946 270.929 26.3946C268.986 26.3946 267.193 26.8677 265.549 27.8138C263.905 28.76 262.56 30.1545 261.514 31.997C260.517 33.7898 260.02 35.9311 260.02 38.4211C260.02 40.9111 260.517 43.1022 261.514 44.9946C262.56 46.8371 263.905 48.2564 265.549 49.2525C267.242 50.2485 269.035 50.7464 270.929 50.7464C272.871 50.7464 274.689 50.2733 276.383 49.3272C278.076 48.3311 279.421 46.9368 280.418 45.144C281.413 43.3015 281.912 41.1103 281.912 38.5705Z" fill="#F1F3F2"/>
<path d="M37.3251 69.3759C36.3324 69.3759 35.3317 69.3759 34.339 69.3759C34.2366 69.3523 34.142 69.3523 34.0396 69.3523C30.7539 69.3365 27.4605 69.3286 24.1748 69.3129C20.7396 69.2971 17.3042 69.2892 13.8768 69.2735C10.5203 69.2656 7.16377 69.2577 3.79937 69.2498C2.90115 69.2498 1.99506 69.2419 1.09683 69.2341C0.939247 69.2341 0.781665 69.2341 0.631961 69.1868C0.482258 69.1395 0.36407 69.0606 0.316796 68.9109C0.261642 68.7295 0.198608 68.5561 0.198608 68.359C0.214367 67.9334 0.222246 67.5075 0.230125 67.0739C0.238004 66.6877 0.245883 66.3014 0.253762 65.923C0.253762 65.6944 0.2774 65.4737 0.253762 65.2451C0.2774 65.1584 0.269521 65.0717 0.269521 64.985C0.293158 59.9397 0.301037 54.8946 0.340433 49.8493C0.36407 47.1058 0.324675 44.3626 0.324675 41.6193C0.324675 38.7891 0.340433 35.9591 0.419225 33.129C0.442861 32.1751 0.482258 31.2292 0.568928 30.2753C0.655598 29.3688 0.781665 28.4622 0.947128 27.5636C1.45139 24.7886 2.33385 22.1399 3.57876 19.6095C5.17034 16.3852 7.25044 13.5 9.73238 10.9063C13.3647 7.11457 17.6666 4.38699 22.6384 2.70788C24.4269 2.10087 26.2471 1.65153 28.1066 1.31256C28.989 1.1549 29.8715 1.02877 30.7618 0.957807C31.1794 0.926275 31.6048 0.902626 32.0224 0.871094C32.503 0.871094 32.9838 0.871094 33.4566 0.871094C33.819 0.894743 34.1814 0.918392 34.5517 0.949924C35.4578 1.02089 36.3481 1.16278 37.2306 1.38351C44.3769 3.14146 49.4906 9.56623 49.2542 17.473C49.2463 17.6622 49.2384 17.8514 49.199 18.0327C49.1203 18.3559 48.9863 18.4899 48.6554 18.553C48.3481 18.6082 48.0408 18.5924 47.7336 18.5924C43.6521 18.5766 39.5706 18.5609 35.4814 18.553C34.4493 18.553 33.4172 18.5136 32.3848 18.5766C31.6757 18.6239 30.9666 18.7107 30.2733 18.8604C26.972 19.5543 24.1669 21.1388 21.9135 23.6535C19.3371 26.5309 18.0684 29.9442 17.9424 33.7834C17.8951 35.2103 17.9187 36.6371 17.9109 38.056C17.8951 42.2972 17.8872 46.5462 17.84 50.7874C17.84 50.9529 17.84 51.1263 17.8793 51.2919C17.9345 51.5047 18.0763 51.6387 18.2891 51.6939C18.4151 51.7254 18.5491 51.7333 18.683 51.7333C21.1099 51.7333 23.5366 51.7412 25.9635 51.757C28.4611 51.7727 30.9666 51.7727 33.4644 51.7885C34.536 51.7964 35.6075 51.8279 36.679 51.7412C37.5615 51.6703 38.4282 51.5362 39.287 51.3234C45.2042 49.8729 48.9548 45.4662 50.4439 40.7206C50.9482 39.1202 51.1136 37.4648 51.0979 35.7936C51.09 34.2801 51.0742 32.7664 51.09 31.2607C51.0979 30.5197 51.1136 29.7787 51.0821 29.0298C51.0585 28.3282 51.1215 27.6188 51.0427 26.9172C51.027 26.7989 51.0112 26.6807 51.0191 26.5624C51.0348 25.8292 50.9876 25.1039 51.0348 24.3708C51.0663 23.8899 51.1057 23.4012 51.0979 22.9203C51.0979 22.6129 51.1136 22.3055 51.09 21.998C51.0427 21.3595 51.0664 20.7131 51.0742 20.0746C51.0821 19.7199 51.1057 19.373 51.1136 19.0181C51.1215 18.3717 51.1294 17.7332 51.1294 17.0868C51.1294 15.8885 51.2476 14.7061 51.4997 13.5394C52.1064 10.7566 53.3512 8.29707 55.2739 6.19224C57.346 3.92189 59.8831 2.40833 62.8457 1.60423C63.9015 1.32044 64.973 1.13913 66.0603 1.07607C66.6513 1.04454 67.2422 1.04454 67.8333 1.03665C67.9909 1.03665 68.1484 1.013 68.306 1.03665C68.566 1.06819 68.6921 1.19431 68.7 1.45445C68.7078 1.69096 68.7 1.93533 68.7 2.17182C68.6921 6.33414 68.7 10.4964 68.6763 14.6588C68.6527 18.08 68.6527 21.4935 68.6369 24.9147C68.6212 28.683 68.5975 32.4432 68.5739 36.2114C68.566 37.3544 68.5424 38.4896 68.44 39.6326C68.3533 40.6339 68.2272 41.6272 68.046 42.6125C67.5731 45.1824 66.7852 47.6578 65.6822 50.0306C64.4924 52.5926 62.9797 54.9576 61.2227 57.1649C57.8109 61.4455 53.5955 64.6696 48.5451 66.7823C46.4255 67.6652 44.2351 68.3275 41.9817 68.7926C41.0914 68.9739 40.2011 69.1237 39.2949 69.2183C38.6961 69.2813 38.0894 69.3286 37.4906 69.3602C37.4354 69.3365 37.3724 69.3129 37.3251 69.3759ZM33.1572 11.5527C33.1572 11.7262 33.165 11.8917 33.1887 12.0572C33.5038 14.1779 35.8045 15.7151 38.0421 14.7298C39.5785 14.0597 40.406 12.4358 40.0514 10.8433C39.6652 9.10902 38.0027 7.80044 36.0408 8.14729C34.339 8.43896 33.1335 9.94461 33.1572 11.5527Z" fill="#00D777"/>
</svg>
