<svg width="189" height="53" viewBox="0 0 189 53" fill="none" xmlns="http://www.w3.org/2000/svg">
<path d="M82.15 49H72.85L57.7 31.85V49H51.3V14H57.7V29.5L70.9 14H79.7L64.85 30.2L82.15 49ZM83.1383 28.6C85.5716 26.3 88.6383 25.15 92.3383 25.15C96.0383 25.15 99.0883 26.3 101.488 28.6C103.922 30.9 105.138 33.85 105.138 37.45C105.138 41.05 103.922 44 101.488 46.3C99.0883 48.6 96.0383 49.75 92.3383 49.75C88.6383 49.75 85.5716 48.6 83.1383 46.3C80.7383 44 79.5383 41.05 79.5383 37.45C79.5383 33.85 80.7383 30.9 83.1383 28.6ZM96.9883 32.75C95.7883 31.55 94.2383 30.95 92.3383 30.95C90.4383 30.95 88.8716 31.55 87.6383 32.75C86.4383 33.9167 85.8383 35.4833 85.8383 37.45C85.8383 39.4167 86.4383 41 87.6383 42.2C88.8716 43.3667 90.4383 43.95 92.3383 43.95C94.2383 43.95 95.7883 43.3667 96.9883 42.2C98.1883 41 98.7883 39.4167 98.7883 37.45C98.7883 35.4833 98.1883 33.9167 96.9883 32.75ZM121.662 49.75C118.129 49.75 115.562 48.4167 113.962 45.75H113.862V49H107.712V14H113.862V29.15H113.962C115.562 26.4833 118.129 25.15 121.662 25.15C124.829 25.15 127.462 26.25 129.562 28.45C131.695 30.65 132.762 33.65 132.762 37.45C132.762 41.25 131.695 44.25 129.562 46.45C127.462 48.65 124.829 49.75 121.662 49.75ZM115.562 42.15C116.729 43.35 118.245 43.95 120.112 43.95C121.979 43.95 123.479 43.35 124.612 42.15C125.779 40.95 126.362 39.3833 126.362 37.45C126.362 35.5167 125.779 33.95 124.612 32.75C123.479 31.55 121.979 30.95 120.112 30.95C118.245 30.95 116.729 31.55 115.562 32.75C114.429 33.95 113.862 35.5167 113.862 37.45C113.862 39.3833 114.429 40.95 115.562 42.15ZM149.313 25.2V31.8H148.613C146.113 31.8 144.279 32.4 143.113 33.6C141.946 34.8 141.363 36.7833 141.363 39.55V49H135.263V25.9H141.313V30.8H141.413C142.646 27.0667 145.196 25.2 149.063 25.2H149.313ZM159.527 49.75C156.36 49.75 153.71 48.65 151.577 46.45C149.477 44.25 148.427 41.25 148.427 37.45C148.427 33.65 149.477 30.65 151.577 28.45C153.71 26.25 156.36 25.15 159.527 25.15C163.06 25.15 165.627 26.4833 167.227 29.15H167.327V25.9H173.427V49H167.327V45.75H167.227C165.627 48.4167 163.06 49.75 159.527 49.75ZM156.527 42.15C157.694 43.35 159.21 43.95 161.077 43.95C162.944 43.95 164.444 43.35 165.577 42.15C166.744 40.95 167.327 39.3833 167.327 37.45C167.327 35.5167 166.744 33.95 165.577 32.75C164.444 31.55 162.944 30.95 161.077 30.95C159.21 30.95 157.694 31.55 156.527 32.75C155.394 33.95 154.827 35.5167 154.827 37.45C154.827 39.3833 155.394 40.95 156.527 42.15Z" fill="#212121"/>
<path d="M21.6806 49.9882C21.101 49.9882 20.5168 49.9882 19.9372 49.9882C19.8774 49.9744 19.8222 49.9744 19.7624 49.9744C17.8441 49.9652 15.9213 49.9606 14.003 49.9514C11.9974 49.9422 9.99173 49.9376 7.99068 49.9284C6.03103 49.9238 4.07138 49.9192 2.10713 49.9146C1.58272 49.9146 1.05371 49.91 0.529296 49.9054C0.437293 49.9054 0.345291 49.9054 0.257889 49.8778C0.170487 49.8502 0.101485 49.8042 0.0738845 49.7168C0.0416837 49.611 0.00488281 49.5098 0.00488281 49.3948C0.014083 49.1464 0.0186832 48.8979 0.0232833 48.6449C0.0278834 48.4195 0.0324835 48.1941 0.0370836 47.9733C0.0370836 47.8399 0.0508839 47.7111 0.0370836 47.5777C0.0508839 47.5271 0.0462838 47.4765 0.0462838 47.4259C0.0600842 44.4818 0.0646843 41.5378 0.0876848 38.5937C0.101485 36.9928 0.0784846 35.392 0.0784846 33.7912C0.0784846 32.1397 0.0876849 30.4883 0.133686 28.8368C0.147486 28.2802 0.170487 27.7282 0.221088 27.1716C0.271689 26.6426 0.345291 26.1136 0.441894 25.5892C0.736301 23.9699 1.25151 22.4243 1.97833 20.9477C2.90755 19.0662 4.12198 17.3826 5.57102 15.8691C7.69167 13.6565 10.2033 12.0648 13.106 11.085C14.1502 10.7308 15.2129 10.4686 16.2985 10.2708C16.8137 10.1788 17.3289 10.1052 17.8487 10.0638C18.0925 10.0454 18.3409 10.0316 18.5847 10.0132C18.8653 10.0132 19.146 10.0132 19.422 10.0132C19.6336 10.027 19.8452 10.0408 20.0614 10.0592C20.5904 10.1006 21.1102 10.1834 21.6254 10.3122C25.7977 11.338 28.7832 15.0871 28.6452 19.701C28.6406 19.8114 28.636 19.9218 28.613 20.0276C28.567 20.2162 28.4888 20.2944 28.2956 20.3312C28.1162 20.3634 27.9368 20.3542 27.7574 20.3542C25.3745 20.345 22.9916 20.3358 20.6042 20.3312C20.0016 20.3312 19.399 20.3082 18.7963 20.345C18.3823 20.3726 17.9683 20.4232 17.5635 20.5106C15.6361 20.9155 13.9984 21.8401 12.6828 23.3075C11.1786 24.9866 10.4379 26.9784 10.3643 29.2187C10.3367 30.0513 10.3505 30.8839 10.3459 31.7119C10.3367 34.1868 10.3321 36.6662 10.3045 39.1411C10.3045 39.2377 10.3045 39.3389 10.3275 39.4355C10.3597 39.5597 10.4425 39.6379 10.5667 39.6701C10.6403 39.6885 10.7185 39.6931 10.7967 39.6931C12.2136 39.6931 13.6304 39.6977 15.0473 39.7069C16.5055 39.7161 17.9683 39.7161 19.4266 39.7253C20.0522 39.7299 20.6778 39.7483 21.3034 39.6977C21.8186 39.6563 22.3246 39.5781 22.826 39.4539C26.2807 38.6075 28.4704 36.036 29.3398 33.2668C29.6342 32.3329 29.7308 31.3669 29.7216 30.3917C29.717 29.5085 29.7078 28.6252 29.717 27.7466C29.7216 27.3142 29.7308 26.8818 29.7124 26.4448C29.6986 26.0354 29.7354 25.6214 29.6894 25.212C29.6802 25.143 29.671 25.074 29.6756 25.005C29.6848 24.5771 29.6572 24.1539 29.6848 23.7261C29.7032 23.4455 29.7262 23.1603 29.7216 22.8797C29.7216 22.7003 29.7308 22.5209 29.717 22.3415C29.6894 21.9689 29.7032 21.5917 29.7078 21.2191C29.7124 21.0121 29.7262 20.8097 29.7308 20.6026C29.7354 20.2254 29.74 19.8528 29.74 19.4756C29.74 18.7764 29.809 18.0864 29.9562 17.4056C30.3104 15.7817 31.0372 14.3465 32.1597 13.1183C33.3695 11.7934 34.8507 10.9102 36.5804 10.441C37.1968 10.2754 37.8224 10.1696 38.4572 10.1328C38.8022 10.1144 39.1472 10.1144 39.4923 10.1098C39.5843 10.1098 39.6763 10.096 39.7683 10.1098C39.9201 10.1282 39.9937 10.2018 39.9983 10.3536C40.0029 10.4916 39.9983 10.6342 39.9983 10.7722C39.9937 13.2011 39.9983 15.6299 39.9845 18.0588C39.9707 20.0552 39.9707 22.0471 39.9615 24.0435C39.9523 26.2424 39.9385 28.4366 39.9247 30.6355C39.9201 31.3025 39.9063 31.9649 39.8465 32.6319C39.7959 33.2162 39.7223 33.7958 39.6165 34.3708C39.3405 35.8704 38.8804 37.3149 38.2364 38.6995C37.5418 40.1945 36.6586 41.5746 35.6328 42.8626C33.6409 45.3605 31.1798 47.2419 28.2312 48.4747C26.9937 48.9899 25.7149 49.3764 24.3993 49.6478C23.8795 49.7536 23.3597 49.841 22.8306 49.8962C22.481 49.933 22.1268 49.9606 21.7772 49.979C21.745 49.9652 21.7082 49.9514 21.6806 49.9882ZM19.2472 16.2463C19.2472 16.3475 19.2518 16.4441 19.2656 16.5407C19.4496 17.7782 20.7928 18.6752 22.0992 18.1002C22.9962 17.7092 23.4793 16.7616 23.2723 15.8323C23.0468 14.8203 22.0762 14.0567 20.9308 14.2591C19.9372 14.4293 19.2334 15.3079 19.2472 16.2463Z" fill="#00D777"/>
<path d="M0.000390755 47.5829C0.00959098 47.5829 0.0187912 47.5829 0.0279914 47.5829C0.0463919 47.7163 0.0325915 47.8451 0.0279914 47.9785C0.0279914 48.2039 0.0233913 48.4293 0.0141911 48.6501C0.0141911 48.8985 0.00959098 49.1469 0.000390755 49.3999C-0.00420936 49.5103 0.0325915 49.6161 0.0693925 49.7219C0.0969931 49.8093 0.165995 49.8553 0.253397 49.8829C0.340799 49.9105 0.432801 49.9105 0.524804 49.9105C1.04922 49.9151 1.57823 49.9197 2.10264 49.9197C4.06229 49.9243 6.02194 49.9289 7.98619 49.9335C9.99184 49.9381 11.9975 49.9473 13.9985 49.9565C15.9168 49.9657 17.8396 49.9703 19.7579 49.9795C19.8177 49.9795 19.8775 49.9795 19.9327 49.9933C13.2901 49.9933 6.64295 49.9933 0.000390755 49.9933C0.000390755 49.1837 0.000390755 48.3833 0.000390755 47.5829Z" fill="#F8FDFC"/>
<path d="M18.5895 10.0184C18.5895 10.0138 18.5895 10.0092 18.5895 10C18.8701 10 19.1507 10 19.4267 10C19.4267 10.0046 19.4267 10.0092 19.4267 10.0184C19.1461 10.0184 18.8655 10.0184 18.5895 10.0184Z" fill="#F8FDFC"/>
<path d="M19.247 16.247C19.2332 15.3085 19.937 14.4345 20.9353 14.2597C22.0807 14.0619 23.0559 14.8209 23.2767 15.8329C23.4791 16.7622 22.9961 17.7098 22.1037 18.1008C20.7927 18.6758 19.454 17.7788 19.27 16.5414C19.2516 16.4448 19.247 16.3436 19.247 16.247Z" fill="#F8FDFC"/>
</svg>
