<svg width="69" height="70" viewBox="0 0 69 70" fill="none" xmlns="http://www.w3.org/2000/svg">
<path d="M37.3251 69.3759C36.3324 69.3759 35.3317 69.3759 34.339 69.3759C34.2366 69.3523 34.142 69.3523 34.0396 69.3523C30.7539 69.3365 27.4605 69.3286 24.1748 69.3129C20.7396 69.2971 17.3042 69.2892 13.8768 69.2735C10.5203 69.2656 7.16377 69.2577 3.79937 69.2498C2.90115 69.2498 1.99506 69.2419 1.09683 69.2341C0.939247 69.2341 0.781665 69.2341 0.631961 69.1868C0.482258 69.1395 0.36407 69.0606 0.316796 68.9109C0.261642 68.7295 0.198608 68.5561 0.198608 68.359C0.214367 67.9334 0.222246 67.5075 0.230125 67.0739C0.238004 66.6877 0.245883 66.3014 0.253762 65.923C0.253762 65.6944 0.2774 65.4737 0.253762 65.2451C0.2774 65.1584 0.269521 65.0717 0.269521 64.985C0.293158 59.9397 0.301037 54.8946 0.340433 49.8493C0.36407 47.1058 0.324675 44.3626 0.324675 41.6193C0.324675 38.7891 0.340433 35.9591 0.419225 33.129C0.442861 32.1751 0.482258 31.2292 0.568928 30.2753C0.655598 29.3688 0.781665 28.4622 0.947128 27.5636C1.45139 24.7886 2.33385 22.1399 3.57876 19.6095C5.17034 16.3852 7.25044 13.5 9.73238 10.9063C13.3647 7.11457 17.6666 4.38699 22.6384 2.70788C24.4269 2.10087 26.2471 1.65153 28.1066 1.31256C28.989 1.1549 29.8715 1.02877 30.7618 0.957807C31.1794 0.926275 31.6048 0.902626 32.0224 0.871094C32.503 0.871094 32.9838 0.871094 33.4566 0.871094C33.819 0.894743 34.1814 0.918392 34.5517 0.949924C35.4578 1.02089 36.3481 1.16278 37.2306 1.38351C44.3769 3.14146 49.4906 9.56623 49.2542 17.473C49.2463 17.6622 49.2384 17.8514 49.199 18.0327C49.1203 18.3559 48.9863 18.4899 48.6554 18.553C48.3481 18.6082 48.0408 18.5924 47.7336 18.5924C43.6521 18.5766 39.5706 18.5609 35.4814 18.553C34.4493 18.553 33.4172 18.5136 32.3848 18.5766C31.6757 18.6239 30.9666 18.7107 30.2733 18.8604C26.972 19.5543 24.1669 21.1388 21.9135 23.6535C19.3371 26.5309 18.0684 29.9442 17.9424 33.7834C17.8951 35.2103 17.9187 36.6371 17.9109 38.056C17.8951 42.2972 17.8872 46.5462 17.84 50.7874C17.84 50.9529 17.84 51.1263 17.8793 51.2919C17.9345 51.5047 18.0763 51.6387 18.2891 51.6939C18.4151 51.7254 18.5491 51.7333 18.683 51.7333C21.1099 51.7333 23.5366 51.7412 25.9635 51.757C28.4611 51.7727 30.9666 51.7727 33.4644 51.7885C34.536 51.7964 35.6075 51.8279 36.679 51.7412C37.5615 51.6703 38.4282 51.5362 39.287 51.3234C45.2042 49.8729 48.9548 45.4662 50.4439 40.7206C50.9482 39.1202 51.1136 37.4648 51.0979 35.7936C51.09 34.2801 51.0742 32.7664 51.09 31.2607C51.0979 30.5197 51.1136 29.7787 51.0821 29.0298C51.0585 28.3282 51.1215 27.6188 51.0427 26.9172C51.027 26.7989 51.0112 26.6807 51.0191 26.5624C51.0348 25.8292 50.9876 25.1039 51.0348 24.3708C51.0663 23.8899 51.1057 23.4012 51.0979 22.9203C51.0979 22.6129 51.1136 22.3055 51.09 21.998C51.0427 21.3595 51.0664 20.7131 51.0742 20.0746C51.0821 19.7199 51.1057 19.373 51.1136 19.0181C51.1215 18.3717 51.1294 17.7332 51.1294 17.0868C51.1294 15.8885 51.2476 14.7061 51.4997 13.5394C52.1064 10.7566 53.3512 8.29707 55.2739 6.19224C57.346 3.92189 59.8831 2.40833 62.8457 1.60423C63.9015 1.32044 64.973 1.13913 66.0603 1.07607C66.6513 1.04454 67.2422 1.04454 67.8333 1.03665C67.9909 1.03665 68.1484 1.013 68.306 1.03665C68.566 1.06819 68.6921 1.19431 68.7 1.45445C68.7078 1.69096 68.7 1.93533 68.7 2.17182C68.6921 6.33414 68.7 10.4964 68.6763 14.6588C68.6527 18.08 68.6527 21.4935 68.6369 24.9147C68.6212 28.683 68.5975 32.4432 68.5739 36.2114C68.566 37.3544 68.5424 38.4896 68.44 39.6326C68.3533 40.6339 68.2272 41.6272 68.046 42.6125C67.5731 45.1824 66.7852 47.6578 65.6822 50.0306C64.4924 52.5926 62.9797 54.9576 61.2227 57.1649C57.8109 61.4455 53.5955 64.6696 48.5451 66.7823C46.4255 67.6652 44.2351 68.3275 41.9817 68.7926C41.0914 68.9739 40.2011 69.1237 39.2949 69.2183C38.6961 69.2813 38.0894 69.3286 37.4906 69.3602C37.4354 69.3365 37.3724 69.3129 37.3251 69.3759ZM33.1572 11.5527C33.1572 11.7262 33.165 11.8917 33.1887 12.0572C33.5038 14.1779 35.8045 15.7151 38.0421 14.7298C39.5785 14.0597 40.406 12.4358 40.0514 10.8433C39.6652 9.10902 38.0027 7.80044 36.0408 8.14729C34.339 8.43896 33.1335 9.94461 33.1572 11.5527Z" fill="#F1F3F2"/>
</svg>
